<?xml version="1.0" encoding="utf-8"?>
<!-- Generator: Adobe Illustrator 16.0.0, SVG Export Plug-In . SVG Version: 6.00 Build 0)  -->
<!DOCTYPE svg PUBLIC "-//W3C//DTD SVG 1.1//EN" "http://www.w3.org/Graphics/SVG/1.1/DTD/svg11.dtd">
<svg version="1.1" id="Calque_1" xmlns="http://www.w3.org/2000/svg" xmlns:xlink="http://www.w3.org/1999/xlink" x="0px" y="0px"
	 width="1893.021px" height="1117px" viewBox="0 0 1893.021 1117" enable-background="new 0 0 1893.021 1117" xml:space="preserve">
<g>
	<g>
		<g>
			<path fill="#1D2625" d="M178.25,601.151v82.178c0,2.45-0.913,4.56-2.746,6.386c-1.833,1.838-3.957,2.749-6.391,2.749h-31.965
				c-2.415,0-4.56-0.911-6.369-2.749c-1.833-1.826-2.767-3.936-2.767-6.386V459.636c0-2.429,0.934-4.557,2.767-6.388
				c1.809-1.826,3.955-2.735,6.369-2.735h90.382c13.721,0,25.711,2.284,36.083,6.847c10.34,4.569,19.006,10.494,26.021,17.797
				c6.994,7.311,12.244,15.597,15.751,24.893c3.483,9.286,5.247,18.646,5.247,28.07c0,16.436-5.089,31.197-15.302,44.276
				c-10.208,13.099-25.8,21.767-46.798,26.022c3.056,3.957,7.928,10.34,14.61,19.176c6.706,8.834,13.764,18.192,21.245,28.071
				c7.46,9.896,14.591,19.191,21.444,27.859c6.835,8.669,11.797,14.975,14.838,18.939h-54.777c-3.352,0-6.078-1.005-8.224-2.97
				c-2.124-1.967-3.955-4.034-5.471-6.165l-61.617-82.178H178.25z M252.199,544.777c5.471-5.007,8.217-10.581,8.217-16.657
				c0-7.008-2.969-13.322-8.913-18.943c-5.92-5.634-14.228-8.45-24.866-8.45H178.25v51.586h48.387
				C238.214,552.313,246.727,549.802,252.199,544.777z"/>
			<path fill="#1D2625" d="M361.772,604.817h136.942v42.008H361.772V604.817z"/>
			<path fill="#1D2625" d="M600.984,453.248c1.831,1.831,2.749,3.959,2.749,6.388v223.693c0,2.45-0.918,4.56-2.749,6.386
				c-1.832,1.838-3.956,2.749-6.391,2.749h-31.945c-2.455,0-4.577-0.911-6.389-2.749c-1.836-1.826-2.744-3.936-2.744-6.386V459.636
				c0-2.429,0.908-4.557,2.744-6.388c1.812-1.826,3.934-2.735,6.389-2.735h31.945C597.028,450.513,599.152,451.422,600.984,453.248z
				"/>
			<path fill="#1D2625" d="M745.25,683.329c0,2.45-0.932,4.56-2.744,6.386c-1.835,1.838-3.978,2.749-6.39,2.749h-31.944
				c-2.465,0-4.583-0.911-6.415-2.749c-1.812-1.826-2.727-3.936-2.727-6.386V498.002h-54.774c-2.436,0-4.583-0.922-6.415-2.755
				c-1.807-1.826-2.722-3.959-2.722-6.391v-29.22c0-2.429,0.915-4.557,2.722-6.388c1.832-1.826,3.979-2.735,6.415-2.735H800.03
				c2.431,0,4.557,0.91,6.388,2.735c1.807,1.831,2.728,3.959,2.728,6.388v29.22c0,2.431-0.921,4.565-2.728,6.391
				c-1.831,1.833-3.957,2.755-6.388,2.755h-54.78V683.329z"/>
		</g>
		<g>
			<path fill="#5D7173" d="M896.781,550.292c5.251,5.896,11.753,11.424,19.458,16.575c7.707,5.137,16.197,10.208,25.445,15.23
				c9.249,5.016,17.739,10.155,25.443,15.426c7.703,5.271,14.185,10.979,19.456,17.156c5.273,6.165,7.934,12.983,7.934,20.417
				c0,5.677-1.384,11.193-4.065,16.599c-2.705,5.396-6.751,10.211-12.132,14.456c-5.409,4.246-12.021,7.647-19.857,10.208
				c-7.845,2.575-16.914,3.873-27.187,3.873c-8.227,0-16.001-0.593-23.328-1.751c-7.328-1.151-14.074-2.624-20.239-4.426
				l3.465-10.806c5.925,1.564,12.153,2.835,18.696,3.861c6.568,1.023,13.693,1.545,21.406,1.545c8.217,0,15.544-0.966,21.978-2.883
				c6.413-1.941,11.821-4.502,16.172-7.722c4.384-3.208,7.733-6.811,10.032-10.794c2.321-3.986,3.486-8.034,3.486-12.159
				c0-6.153-2.636-11.806-7.906-16.955c-5.276-5.139-11.754-10.141-19.481-15.035c-7.711-4.879-16.174-9.762-25.448-14.646
				c-9.244-4.879-17.735-10.158-25.439-15.809c-7.71-5.65-14.216-11.895-19.458-18.694c-5.271-6.818-7.909-14.59-7.909-23.338
				c0-6.165,1.403-12.012,4.247-17.543c2.811-5.528,6.924-10.268,12.325-14.256c5.41-3.988,12.018-7.198,19.864-9.646
				c7.842-2.441,16.776-3.659,26.783-3.659c7.439,0,14.789,0.509,21.979,1.543c7.193,1.023,14.146,2.575,20.823,4.632l-3.465,11.167
				c-12.108-3.849-25.195-5.771-39.338-5.771c-16.441,0-29.176,3.33-38.152,10.011c-9.004,6.686-13.497,14.527-13.497,23.522
				C888.872,537.828,891.486,544.377,896.781,550.292z"/>
			<path fill="#5D7173" d="M1089.549,727.641c6.032-1.802,11.306-4.61,15.815-8.48c4.49-3.869,7.997-8.803,10.59-14.845
				c2.568-6.031,3.866-13.423,3.866-22.17v-21.2c-5.92,5.908-13.113,10.533-21.605,13.875c-8.488,3.349-16.845,5.029-25.063,5.029
				c-6.167,0-11.996-0.855-17.535-2.518c-5.522-1.663-10.409-4.435-14.659-8.291c-4.219-3.849-7.567-8.808-10.006-14.838
				c-2.455-6.057-3.683-13.428-3.683-22.17v-92.528h11.57v92.528c0,13.108,3.421,22.415,10.231,27.955
				c6.79,5.517,14.723,8.27,23.699,8.27c9.519,0,18.835-2.441,27.951-7.311c9.134-4.891,15.5-11.301,19.1-19.28V539.503h11.549
				v142.642c0,10.799-1.61,19.996-4.827,27.564c-3.169,7.601-7.64,13.766-13.27,18.513c-5.677,4.745-12.173,8.229-19.479,10.396
				c-7.327,2.188-15.212,3.281-23.723,3.281c-5.922,0-12.086-0.506-18.496-1.527c-6.437-1.038-12.735-2.444-18.902-4.25
				l3.085-11.176c5.919,1.54,11.839,2.83,17.761,3.844c5.875,1.033,11.412,1.552,16.553,1.552
				C1077.017,730.341,1083.516,729.45,1089.549,727.641z"/>
			<path fill="#5D7173" d="M1193.676,665.19c6.544,3.065,14.698,4.625,24.461,4.625c5.14,0,10.411-0.255,15.79-0.776
				c5.41-0.519,10.3-1.607,14.655-3.267c4.38-1.672,7.977-4.003,10.795-6.948c2.832-2.95,4.264-6.883,4.264-11.763
				c0-4.632-2.302-8.733-6.969-12.344c-4.626-3.591-10.322-6.989-17.159-10.21c-6.794-3.217-14.185-6.497-22.158-9.826
				c-7.952-3.349-15.348-7.126-22.163-11.369c-6.787-4.25-12.532-9.139-17.159-14.658c-4.622-5.53-6.946-12.145-6.946-19.861
				c0-4.882,1.36-9.183,4.045-12.916c2.702-3.733,6.258-6.881,10.611-9.439c4.38-2.578,9.384-4.502,15.039-5.792
				c5.67-1.276,11.434-1.922,17.355-1.922c5.651,0,11.303,0.512,16.951,1.538c5.674,1.033,10.791,2.701,15.442,5.017
				c4.625,2.316,8.396,5.151,11.371,8.48c2.942,3.347,4.8,7.323,5.581,11.95c-2.322,0.269-4.314,0.514-5.963,0.783
				c-1.678,0.243-3.553,0.512-5.584,0.754c-1.32-6.419-5.744-11.057-13.316-13.867c-7.595-2.84-15.888-4.248-24.885-4.248
				c-4.356,0-8.666,0.447-12.893,1.35c-4.245,0.906-8.041,2.182-11.369,3.856c-3.351,1.663-5.986,3.734-7.928,6.165
				c-1.929,2.443-2.886,5.206-2.886,8.291c0,6.165,2.326,11.57,6.946,16.203c4.603,4.629,10.347,8.728,17.16,12.327
				c6.814,3.611,14.204,7.08,22.158,10.424c7.975,3.333,15.371,6.864,22.188,10.598c6.809,3.709,12.528,7.907,17.134,12.532
				c4.618,4.625,6.943,10.03,6.943,16.186c0,6.946-1.787,12.602-5.379,16.969c-3.602,4.363-8.181,7.705-13.696,10.025
				c-5.541,2.305-11.706,3.911-18.52,4.815c-6.794,0.91-13.293,1.362-19.458,1.362c-12.353,0-22.945-2.201-31.815-6.581
				c-8.865-4.348-14.968-12.318-18.294-23.886l11.552-1.542C1182.391,656.445,1187.082,662.093,1193.676,665.19z"/>
			<path fill="#5D7173" d="M1330.523,660.176c6.055,5.639,14.096,8.479,24.105,8.479h5.387c2.077,0,4.111-0.262,6.188-0.764
				l2.298,11.176c-2.298,0.512-4.668,0.829-7.124,0.957c-2.46,0.137-4.689,0.208-6.748,0.208c-13.625,0-24.484-3.808-32.593-11.38
				c-8.087-7.583-12.151-19.857-12.151-36.821V485.516h11.596v38.555h50.105v11.556h-50.105v96.403
				C1321.48,645.139,1324.494,654.525,1330.523,660.176z"/>
			<path fill="#5D7173" d="M1398.397,559.542c2.429-5.902,6.024-10.345,10.787-13.305c4.757-2.945,10.609-4.825,17.558-5.593
				c6.902-0.773,14.764-1.141,23.478-1.141c8.757,0,16.601,0.317,23.544,0.958c6.951,0.634,12.871,2.249,17.74,4.815
				c4.891,2.561,8.602,6.218,11.17,10.989c2.565,4.748,3.865,11.371,3.865,19.85v46.272h-100.235v12.709
				c0,7.459,1.292,13.379,3.843,17.747c2.564,4.368,5.984,7.722,10.208,10.033c4.243,2.313,9.201,3.841,14.854,4.613
				c5.652,0.766,11.57,1.165,17.736,1.165c7.439,0,14.791-0.697,21.98-2.126c7.172-1.403,14.12-3.279,20.802-5.583l4.644,10.007
				c-7.464,2.847-15.233,5.096-23.317,6.756c-8.116,1.67-16.271,2.525-24.487,2.525c-7.705,0-15.037-0.526-22.005-1.552
				c-6.901-1.041-13.091-3.147-18.494-6.364c-5.384-3.196-9.632-7.787-12.712-13.68c-3.105-5.915-4.63-13.766-4.63-23.54v-51.272
				C1394.726,573.544,1395.954,565.448,1398.397,559.542z M1494.966,610.828v-34.713c0-6.163-0.963-10.922-2.854-14.252
				c-1.97-3.354-4.851-5.785-8.693-7.325c-3.887-1.544-8.554-2.522-14.07-2.909c-5.545-0.377-11.914-0.579-19.128-0.579
				c-6.924,0-13.136,0.202-18.675,0.579c-5.521,0.387-10.141,1.682-13.875,3.844c-3.729,2.194-6.563,5.473-8.485,9.855
				c-1.944,4.368-2.881,10.545-2.881,18.497v27.004H1494.966z"/>
			<path fill="#5D7173" d="M1620.115,557.606c-5.274-4.363-11.016-6.557-17.182-6.557c-5.136,0-9.938,1.175-14.452,3.488
				c-4.517,2.299-8.624,5.274-12.354,8.854c-3.732,3.611-7.106,7.52-10.187,11.767c-3.106,4.243-5.54,8.289-7.351,12.154v92.919
				h-11.55V539.503h11.55v28.52c5.159-7.455,11.371-14.064,18.72-19.85c7.306-5.78,15.861-8.67,25.624-8.67
				c7.463,0,14.322,1.979,20.621,5.961c6.297,3.978,10.854,10.479,13.697,19.484c5.4-6.953,11.811-12.933,19.275-17.941
				c7.462-5.012,15.277-7.503,23.522-7.503c4.622,0,9.115,0.689,13.492,2.119c4.383,1.413,8.289,3.784,11.751,7.128
				c3.463,3.333,6.256,7.573,8.291,12.721c2.055,5.127,3.102,11.29,3.102,18.512v100.249h-11.592V579.983
				c0-10.542-2.639-18-7.885-22.377c-5.273-4.363-11.016-6.557-17.159-6.557c-4.38,0-8.556,0.911-12.536,2.708
				c-3.998,1.807-7.705,4.111-11.191,6.946c-3.459,2.816-6.608,6.03-9.427,9.627c-2.835,3.599-5.271,7.068-7.325,10.422v99.48
				h-11.572V579.983C1627.998,569.441,1625.34,561.983,1620.115,557.606z"/>
			<path fill="#5D7173" d="M1760.832,559.542c2.432-5.902,6.027-10.345,10.789-13.305c4.76-2.945,10.611-4.825,17.558-5.593
				c6.921-0.773,14.769-1.141,23.499-1.141c8.735,0,16.578,0.317,23.525,0.958c6.929,0.634,12.847,2.249,17.735,4.815
				c4.872,2.561,8.606,6.218,11.173,10.989c2.594,4.748,3.861,11.371,3.861,19.85v46.272h-100.238v12.709
				c0,7.459,1.301,13.379,3.867,17.747c2.576,4.368,5.966,7.722,10.211,10.033c4.245,2.313,9.182,3.841,14.835,4.613
				c5.671,0.766,11.571,1.165,17.733,1.165c7.436,0,14.791-0.697,21.983-2.126c7.171-1.403,14.14-3.279,20.819-5.583l4.627,10.007
				c-7.462,2.847-15.236,5.096-23.325,6.756c-8.104,1.67-16.263,2.525-24.481,2.525c-7.729,0-15.035-0.526-21.98-1.552
				c-6.951-1.041-13.116-3.147-18.521-6.364c-5.387-3.196-9.627-7.787-12.714-13.68c-3.083-5.915-4.622-13.766-4.622-23.54v-51.272
				C1757.166,573.544,1758.396,565.448,1760.832,559.542z M1857.402,610.828v-34.713c0-6.163-0.958-10.922-2.877-14.252
				c-1.923-3.354-4.83-5.785-8.669-7.325c-3.868-1.544-8.556-2.522-14.078-2.909c-5.536-0.377-11.884-0.579-19.101-0.579
				c-6.943,0-13.158,0.202-18.699,0.579c-5.516,0.387-10.141,1.682-13.869,3.844c-3.729,2.194-6.547,5.473-8.488,9.855
				c-1.922,4.368-2.887,10.545-2.887,18.497v27.004H1857.402z"/>
		</g>
	</g>
	<path fill="#F28444" d="M41.312,607.897c0,0-1.273,4.827-3.642,13.863c-1.343,4.514-2.415,10.176-3.709,16.8
		c-1.473,6.566-2.437,14.278-3.575,22.855c-1.854,17.167-2.724,38.284,0.805,61.399c1.857,11.496,4.649,23.626,9.093,35.352
		c1.163,3.095,2.321,6.253,3.508,9.428c1.365,2.811,2.724,5.665,4.111,8.531c2.477,5.852,6.253,11.4,9.583,17.229
		c1.653,2.911,3.844,5.437,5.761,8.226c2.057,2.672,3.82,5.665,6.165,8.123c4.536,5.094,8.871,10.512,14.1,15.133
		c9.808,9.92,21.243,18.454,33.263,26.55c24.51,15.528,52.675,27.076,82.675,35.52c30.118,8.223,62.15,12.538,94.922,14.771
		c32.751,2.097,66.305,1.323,99.791-1.831c33.491-2.804,66.977-7.886,99.724-14.793c32.684-7.077,64.809-15.01,95.546-24.617
		c7.684-2.458,15.303-4.887,22.834-7.301c7.481-2.616,14.944-5.176,22.271-7.718c7.395-2.422,14.583-5.286,21.755-7.924
		c3.577-1.314,7.133-2.645,10.682-3.952l2.348-0.894l2.613-1.117l5.201-2.263c13.896-5.891,27.415-11.622,40.479-17.17
		c6.5-2.828,13.07-5.254,19.188-8.224c6.145-3.016,12.155-5.975,18.012-8.887c11.793-5.812,23.075-11.375,33.822-16.65
		c2.679-1.326,5.381-2.554,7.974-3.928c2.565-1.468,5.094-2.885,7.597-4.312c4.979-2.804,9.85-5.563,14.539-8.2
		c18.702-10.9,35.592-19.299,48.497-28.347c13.186-8.58,15.886-16.044,23.013-20.571c7.125-4.509,18.695-5.9,18.695-5.9
		s-3.527,2.923-10.139,8.375c-6.657,5.389-16.327,13.538-28.888,23.503c-12.283,10.586-28.345,21.031-46.575,33.674
		c-4.535,3.142-9.249,6.376-14.096,9.718c-2.438,1.666-4.872,3.337-7.373,5.06c-2.544,1.662-5.204,3.147-7.839,4.747
		c-10.614,6.244-21.804,12.787-33.491,19.647c-5.85,3.41-11.813,6.879-17.937,10.442c-6.096,3.5-12.419,6.359-18.834,9.651
		c-12.819,6.302-26.067,12.836-39.718,19.527c-28.129,13.136-57.478,25.409-88.801,36.021
		c-31.205,10.569-63.775,20.578-97.353,27.844c-33.513,7.421-67.892,13.109-102.45,16.303c-34.583,2.869-69.298,3.304-103.367,0.735
		c-34.066-2.435-67.396-8.755-98.962-18.28c-31.521-9.651-61.033-23.871-86.792-42.083c-25.645-18.432-47.151-41.806-61.61-67.93
		c-3.395-6.75-7.034-12.89-9.607-20.009c-1.408-3.452-2.768-6.847-4.106-10.194c-0.961-3.317-1.922-6.544-2.864-9.751
		c-4.021-13.507-6.054-26.752-7.168-39.264c-2.167-25.154,0.78-47.051,4.108-64.382c0.985-4.356,1.898-8.423,2.749-12.267
		c0.783-3.858,2.143-7.325,3.042-10.604c2.011-6.562,3.637-12.066,5.406-16.357C39.568,612.534,41.312,607.897,41.312,607.897z"/>
	<path fill="#F28444" d="M765.491,229.898c-4.671-0.503-9.384-0.961-14.095-1.314c-31.814-2.507-64.229-2.36-96.485-0.078
		c-32.306,2.592-64.43,7.39-95.836,13.729c-31.43,6.097-61.902,15.067-91.213,24.293c-14.632,4.614-28.932,9.651-42.849,14.891
		c-13.829,5.562-27.456,10.655-40.434,16.504c-6.591,2.882-13.092,5.718-19.504,8.521c-6.184,3.022-12.285,5.993-18.271,8.915
		c-11.974,5.976-23.526,11.751-34.648,17.292c-10.949,6.199-21.488,12.156-31.502,17.816c-9.984,5.718-19.432,11.059-27.994,16.888
		c-8.62,5.619-16.664,10.88-24.14,15.744c-7.419,4.928-14.254,9.349-20.174,13.956c-12.025,8.812-21.292,16.046-27.658,20.841
		c-6.369,4.794-9.718,7.362-9.718,7.362s3.621-2.034,10.432-5.893c6.79-3.882,16.82-9.38,29.354-16.755
		c6.259-3.812,13.404-7.35,21.176-11.321c7.733-3.986,16.063-8.335,25-12.976c8.846-4.88,18.519-9.169,28.681-13.773
		c10.101-4.713,20.712-9.68,31.814-14.854c11.349-4.631,23.184-9.464,35.43-14.439c6.095-2.534,12.333-5.12,18.656-7.738
		c6.275-2.324,12.599-4.677,19.052-7.086c26.073-9.537,53.82-18.529,82.66-26.742c28.816-8.255,58.867-15.197,89.468-21.123
		c30.629-5.82,61.905-10.06,93.157-12.298c31.3-2.564,62.599-3.067,93.179-1.017c2.191,0.157,4.401,0.34,6.587,0.515
		C757.313,249.143,760.713,239.102,765.491,229.898z"/>
	<path fill="#F28444" d="M978.293,309.17c-5.581,0-10.874,1.132-15.725,3.176c-3.258-36.697-34.043-65.498-71.572-65.498
		c-9.183,0-18.14,1.808-26.048,4.87c-3.083,1.179-3.909,2.412-3.933,4.798v129.229c0.063,2.502,1.986,4.438,4.398,4.67
		c0.024,0.009,12.604,0.009,29.31,0.009c33.463,0,83.569-0.009,83.569-0.009c22.478,0,40.729-18.021,40.729-40.521
		C1019.022,327.415,1000.771,309.17,978.293,309.17z M978.293,376.943l-83.569,0.012c-7.995,0-15.058,0-20.237,0V262.692
		c5.386-1.553,10.993-2.369,16.51-2.369c30.468,0,55.467,22.871,58.147,53.203l1.609,18.373l16.998-7.142
		c3.354-1.402,6.905-2.117,10.542-2.117c15.04,0,27.264,12.224,27.264,27.252C1005.557,364.805,993.333,376.943,978.293,376.943z
		 M765.047,289.466c4.689-4.183,10.076-7.566,15.972-9.94v110.657h-15.972V289.466z M800.897,275.672c4,0,7.914,0.452,11.688,1.299
		v113.212h-15.998V275.845C798.038,275.737,799.468,275.672,800.897,275.672z M844.128,262.339v127.843h-15.973V277.592
		C832.624,271.767,838.006,266.623,844.128,262.339z M749.363,312.652c0.02-0.104,0.067-0.182,0.091-0.272v77.803h-14.323v-0.189
		c-0.558-0.043-1.095-0.11-1.648-0.195v-78.115c1.783-0.264,3.613-0.39,5.449-0.39C742.526,311.293,746.033,311.769,749.363,312.652
		z M717.909,317.222v67.027c-11.349-6.951-18.897-19.354-18.897-33.519C699.012,336.597,706.561,324.195,717.909,317.222z"/>
</g>
</svg>
