<?xml version="1.0" encoding="utf-8"?>
<!-- Generator: Adobe Illustrator 16.0.0, SVG Export Plug-In . SVG Version: 6.00 Build 0)  -->
<!DOCTYPE svg PUBLIC "-//W3C//DTD SVG 1.1//EN" "http://www.w3.org/Graphics/SVG/1.1/DTD/svg11.dtd">
<svg version="1.1" id="Calque_1" xmlns="http://www.w3.org/2000/svg" xmlns:xlink="http://www.w3.org/1999/xlink" x="0px" y="0px"
	 width="579px" height="475px" viewBox="0 0 579 475" enable-background="new 0 0 579 475" xml:space="preserve">
<g>
	<g>
		<path fill="#F28444" d="M147.125,243.801v36.801c0,1.096-0.409,2.041-1.229,2.858c-0.822,0.824-1.771,1.23-2.863,1.23h-14.314
			c-1.081,0-2.041-0.406-2.852-1.23c-0.819-0.817-1.239-1.763-1.239-2.858V180.428c0-1.088,0.419-2.041,1.239-2.86
			c0.811-0.819,1.771-1.226,2.852-1.226h40.476c6.144,0,11.513,1.023,16.158,3.066c4.629,2.046,8.511,4.7,11.652,7.97
			c3.132,3.274,5.483,6.985,7.054,11.148c1.559,4.156,2.349,8.348,2.349,12.569c0,7.36-2.278,13.97-6.851,19.827
			c-4.573,5.865-11.556,9.747-20.959,11.652c1.37,1.771,3.552,4.631,6.543,8.588c3.005,3.956,6.163,8.146,9.515,12.569
			c3.341,4.432,6.533,8.596,9.604,12.476c3.061,3.883,5.281,6.706,6.644,8.482h-24.531c-1.499,0-2.722-0.45-3.683-1.33
			c-0.95-0.881-1.77-1.806-2.45-2.759l-27.592-36.801H147.125z M180.239,218.553c2.45-2.239,3.68-4.736,3.68-7.457
			c0-3.138-1.329-5.967-3.991-8.482c-2.652-2.524-6.372-3.785-11.135-3.785h-21.669v23.102h21.669
			C173.978,221.93,177.788,220.805,180.239,218.553z"/>
		<path fill="#F28444" d="M229.309,245.441h61.324v18.813h-61.324V245.441z"/>
		<path fill="#F28444" d="M336.43,177.568c0.819,0.819,1.233,1.772,1.233,2.86v100.173c0,1.096-0.414,2.041-1.233,2.858
			c-0.819,0.824-1.773,1.23-2.861,1.23h-14.306c-1.102,0-2.051-0.406-2.86-1.23c-0.822-0.817-1.231-1.763-1.231-2.858V180.428
			c0-1.088,0.409-2.041,1.231-2.86c0.809-0.819,1.759-1.226,2.86-1.226h14.306C334.657,176.342,335.611,176.749,336.43,177.568z"/>
		<path fill="#F28444" d="M401.033,280.602c0,1.096-0.416,2.041-1.229,2.858c-0.819,0.824-1.78,1.23-2.861,1.23h-14.305
			c-1.103,0-2.052-0.406-2.873-1.23c-0.811-0.817-1.22-1.763-1.22-2.858v-82.993h-24.531c-1.088,0-2.052-0.413-2.871-1.234
			c-0.81-0.817-1.219-1.773-1.219-2.86v-13.085c0-1.088,0.409-2.041,1.219-2.86c0.818-0.819,1.782-1.226,2.871-1.226h71.549
			c1.089,0,2.042,0.407,2.863,1.226c0.807,0.819,1.22,1.772,1.22,2.86v13.085c0,1.087-0.413,2.043-1.22,2.86
			c-0.82,0.821-1.773,1.234-2.863,1.234h-24.531V280.602z"/>
	</g>
	<path fill="#F28444" d="M85.803,246.82c0,0-0.57,2.161-1.631,6.208c-0.601,2.021-1.082,4.558-1.663,7.523
		c-0.658,2.94-1.088,6.395-1.6,10.236c-0.83,7.686-1.22,17.143,0.36,27.494c0.833,5.147,2.083,10.58,4.073,15.831
		c0.521,1.386,1.04,2.8,1.57,4.222c0.612,1.259,1.22,2.538,1.842,3.821c1.109,2.621,2.799,5.104,4.292,7.714
		c0.739,1.305,1.721,2.435,2.58,3.686c0.92,1.195,1.711,2.536,2.761,3.637c2.03,2.281,3.971,4.708,6.314,6.776
		c4.392,4.442,9.513,8.264,14.895,11.889c10.975,6.954,23.589,12.126,37.024,15.906c13.485,3.683,27.832,5.614,42.506,6.615
		c14.667,0.938,29.692,0.592,44.688-0.819c14.998-1.258,29.992-3.533,44.657-6.625c14.636-3.169,29.023-6.722,42.787-11.024
		c3.439-1.1,6.854-2.188,10.223-3.269c3.352-1.172,6.695-2.318,9.976-3.457c3.31-1.086,6.531-2.366,9.742-3.548
		c1.602-0.589,3.193-1.185,4.783-1.77l1.05-0.398l1.173-0.503l2.328-1.013c6.224-2.639,12.278-5.205,18.128-7.689
		c2.909-1.268,5.853-2.354,8.592-3.683c2.751-1.35,5.441-2.677,8.066-3.98c5.282-2.602,10.333-5.094,15.146-7.454
		c1.199-0.595,2.409-1.145,3.569-1.76c1.151-0.657,2.283-1.292,3.402-1.932c2.233-1.256,4.412-2.49,6.511-3.673
		c8.375-4.88,15.937-8.641,21.719-12.694c5.904-3.841,7.113-7.184,10.304-9.212c3.191-2.02,8.374-2.641,8.374-2.641
		s-1.581,1.311-4.542,3.751c-2.979,2.411-7.31,6.063-12.934,10.524c-5.503,4.739-12.696,9.42-20.859,15.08
		c-2.03,1.405-4.142,2.855-6.311,4.352c-1.092,0.745-2.184,1.494-3.303,2.266c-1.139,0.745-2.33,1.41-3.509,2.124
		c-4.754,2.798-9.765,5.729-15,8.801c-2.617,1.524-5.288,3.079-8.032,4.675c-2.73,1.568-5.561,2.849-8.434,4.322
		c-5.74,2.823-11.672,5.748-17.788,8.743c-12.594,5.883-25.738,11.381-39.764,16.132c-13.977,4.732-28.56,9.215-43.597,12.468
		c-15.007,3.324-30.402,5.871-45.877,7.303c-15.486,1.285-31.032,1.478-46.289,0.328c-15.256-1.09-30.182-3.922-44.316-8.186
		c-14.117-4.323-27.333-10.69-38.868-18.847c-11.484-8.253-21.116-18.721-27.589-30.419c-1.521-3.022-3.151-5.771-4.302-8.959
		c-0.631-1.545-1.241-3.066-1.839-4.567c-0.431-1.485-0.86-2.929-1.282-4.365c-1.801-6.05-2.714-11.98-3.212-17.583
		c-0.969-11.266,0.35-21.069,1.839-28.833c0.442-1.948,0.851-3.77,1.232-5.493c0.351-1.728,0.962-3.279,1.362-4.75
		c0.9-2.936,1.63-5.4,2.421-7.323C85.021,248.898,85.803,246.82,85.803,246.82z"/>
	<path fill="#F28444" d="M410.098,77.548c-2.09-0.226-4.201-0.43-6.312-0.589c-14.246-1.123-28.76-1.057-43.205-0.035
		c-14.468,1.162-28.852,3.31-42.918,6.148c-14.073,2.73-27.719,6.747-40.846,10.878c-6.552,2.067-12.955,4.322-19.187,6.668
		c-6.193,2.491-12.296,4.772-18.107,7.391c-2.952,1.291-5.862,2.56-8.735,3.815c-2.768,1.355-5.5,2.685-8.181,3.993
		c-5.364,2.676-10.534,5.263-15.516,7.744c-4.903,2.775-9.624,5.444-14.108,7.977c-4.472,2.562-8.702,4.953-12.536,7.562
		c-3.86,2.518-7.462,4.874-10.811,7.052c-3.323,2.207-6.383,4.187-9.035,6.25c-5.383,3.946-9.535,7.185-12.385,9.333
		c-2.852,2.147-4.353,3.297-4.353,3.297s1.623-0.911,4.674-2.638c3.039-1.74,7.531-4.201,13.144-7.503
		c2.803-1.708,6.002-3.291,9.483-5.069c3.464-1.786,7.194-3.733,11.197-5.812c3.96-2.186,8.292-4.106,12.842-6.168
		c4.522-2.11,9.274-4.334,14.248-6.652c5.081-2.074,10.381-4.238,15.864-6.467c2.731-1.134,5.523-2.292,8.355-3.465
		c2.812-1.041,5.643-2.094,8.532-3.172c11.675-4.272,24.1-8.298,37.016-11.977c12.905-3.696,26.359-6.805,40.066-9.459
		c13.714-2.606,27.722-4.504,41.715-5.506c14.017-1.148,28.034-1.374,41.726-0.455c0.981,0.069,1.97,0.152,2.952,0.23
		C406.438,86.165,407.959,81.669,410.098,77.548z"/>
	<path fill="#F28444" d="M505.395,113.047c-2.5,0-4.871,0.508-7.041,1.422c-1.461-16.434-15.245-29.331-32.05-29.331
		c-4.116,0-8.125,0.81-11.666,2.181c-1.381,0.527-1.751,1.081-1.764,2.148v57.87c0.032,1.121,0.892,1.987,1.971,2.092
		c0.011,0.004,5.645,0.004,13.125,0.004c14.986,0,37.424-0.004,37.424-0.004c10.065,0,18.238-8.07,18.238-18.146
		C523.633,121.218,515.46,113.047,505.395,113.047z M505.395,143.396l-37.424,0.006c-3.582,0-6.743,0-9.063,0V92.234
		c2.411-0.696,4.924-1.061,7.396-1.061c13.643,0,24.837,10.241,26.036,23.825l0.721,8.228l7.613-3.198
		c1.501-0.628,3.093-0.948,4.721-0.948c6.733,0,12.208,5.474,12.208,12.204C517.603,137.961,512.128,143.396,505.395,143.396z
		 M409.897,104.223c2.104-1.873,4.513-3.389,7.152-4.451v49.553h-7.152V104.223z M425.956,98.046c1.789,0,3.541,0.202,5.23,0.582
		v50.696h-7.162V98.124C424.674,98.075,425.314,98.046,425.956,98.046z M445.313,92.075v57.25h-7.152V98.906
		C440.161,96.298,442.57,93.994,445.313,92.075z M402.876,114.607c0.008-0.048,0.03-0.082,0.041-0.123v34.84h-6.415v-0.083
		c-0.247-0.02-0.489-0.05-0.737-0.088v-34.98c0.8-0.118,1.619-0.174,2.438-0.174C399.813,113.998,401.387,114.211,402.876,114.607z
		 M388.791,116.653v30.015c-5.08-3.113-8.463-8.667-8.463-15.01C380.328,125.329,383.71,119.776,388.791,116.653z"/>
</g>
</svg>
